<svg fill="none" height="28" viewBox="0 0 28 28" width="28" xmlns="http://www.w3.org/2000/svg">
    <path
        d="M14 4.66663C15.2376 4.66663 16.4246 5.15829 17.2998 6.03346C18.175 6.90863 18.6666 8.09562 18.6666 9.33329C18.6666 10.571 18.175 11.758 17.2998 12.6331C16.4246 13.5083 15.2376 14 14 14C12.7623 14 11.5753 13.5083 10.7001 12.6331C9.82496 11.758 9.33329 10.571 9.33329 9.33329C9.33329 8.09562 9.82496 6.90863 10.7001 6.03346C11.5753 5.15829 12.7623 4.66663 14 4.66663ZM14 6.99996C13.3811 6.99996 12.7876 7.24579 12.35 7.68338C11.9125 8.12096 11.6666 8.71445 11.6666 9.33329C11.6666 9.95213 11.9125 10.5456 12.35 10.9832C12.7876 11.4208 13.3811 11.6666 14 11.6666C14.6188 11.6666 15.2123 11.4208 15.6499 10.9832C16.0875 10.5456 16.3333 9.95213 16.3333 9.33329C16.3333 8.71445 16.0875 8.12096 15.6499 7.68338C15.2123 7.24579 14.6188 6.99996 14 6.99996ZM14 15.1666C17.115 15.1666 23.3333 16.7183 23.3333 19.8333V23.3333H4.66663V19.8333C4.66663 16.7183 10.885 15.1666 14 15.1666ZM14 17.3833C10.535 17.3833 6.88329 19.0866 6.88329 19.8333V21.1166H21.1166V19.8333C21.1166 19.0866 17.465 17.3833 14 17.3833Z"
        fill="white" />
</svg>
