<svg fill="none" height="22" viewBox="0 0 22 22" width="22" xmlns="http://www.w3.org/2000/svg">
    <path
        d="M19.2758 14.9445C18.7859 14.1023 18.2016 12.4953 18.2016 9.625V9.01484C18.2016 5.01875 14.9961 1.74453 11.0516 1.71875H11C10.0528 1.71875 9.11495 1.90559 8.2401 2.26858C7.36524 2.63156 6.57058 3.16356 5.90163 3.83411C5.23268 4.50466 4.70257 5.30058 4.34167 6.1763C3.98077 7.05202 3.79617 7.99033 3.79843 8.9375V9.625C3.79843 12.4953 3.21405 14.1023 2.72421 14.9445C2.57405 15.2063 2.4951 15.5029 2.49524 15.8047C2.49537 16.1065 2.57458 16.403 2.72498 16.6647C2.87537 16.9264 3.0917 17.1441 3.35241 17.2961C3.61313 17.4481 3.90913 17.5292 4.21093 17.5312H7.23593C7.3255 18.4675 7.76076 19.3367 8.45675 19.9693C9.15273 20.6019 10.0595 20.9524 11 20.9524C11.9405 20.9524 12.8472 20.6019 13.5432 19.9693C14.2392 19.3367 14.6745 18.4675 14.7641 17.5312H17.7891C18.0909 17.5292 18.3869 17.4481 18.6476 17.2961C18.9083 17.1441 19.1246 16.9264 19.275 16.6647C19.4254 16.403 19.5046 16.1065 19.5047 15.8047C19.5049 15.5029 19.4259 15.2063 19.2758 14.9445ZM11 18.9062C10.6042 18.9047 10.2209 18.7673 9.91431 18.517C9.6077 18.2667 9.39635 17.9187 9.31562 17.5312H12.6844C12.6036 17.9187 12.3923 18.2667 12.0857 18.517C11.7791 18.7673 11.3958 18.9047 11 18.9062ZM4.77812 15.4688C5.66327 13.6125 5.86093 11.3008 5.86093 9.625V8.9375C5.85753 8.26087 5.98801 7.59025 6.24485 6.96425C6.5017 6.33825 6.87983 5.76924 7.35749 5.28998C7.83515 4.81073 8.40289 4.43069 9.02803 4.17176C9.65317 3.91282 10.3233 3.78011 11 3.78125H11.043C13.8531 3.79844 16.1391 6.14453 16.1391 9.01484V9.625C16.1391 11.3008 16.3367 13.6125 17.2219 15.4688H4.77812Z"
        fill="white" />
</svg>
