<svg fill="none" height="27" viewBox="0 0 27 27" width="27" xmlns="http://www.w3.org/2000/svg">
    <path
        d="M21.9375 5.0625C21.0183 5.9422 19.9249 6.61939 18.7279 7.05037C17.4656 7.27312 13.9725 5.65312 12.2513 7.30687C11.9644 7.59375 11.61 7.88063 11.2387 8.1675C10.4288 7.81313 9.18 7.27312 8.26875 6.75C7.3575 6.22687 5.0625 5.0625 5.0625 5.0625L0 10.9688C0 10.9688 1.24875 12.6562 2.025 13.77C2.53125 14.5125 3.15562 15.6431 3.56062 16.4025L2.98688 17.0775C2.84948 17.3504 2.80004 17.6593 2.84537 17.9615C2.8907 18.2637 3.02857 18.5444 3.24 18.765C3.48405 18.948 3.78099 19.0466 4.086 19.046C4.39102 19.0454 4.68756 18.9456 4.93087 18.7616C4.84065 18.8673 4.77237 18.9898 4.73002 19.1221C4.68766 19.2544 4.67207 19.3938 4.68417 19.5322C4.69627 19.6706 4.7358 19.8052 4.80047 19.9281C4.86513 20.0511 4.95364 20.1599 5.06081 20.2483C5.3185 20.3988 5.61167 20.4778 5.91008 20.4772C6.2085 20.4767 6.50135 20.3965 6.75844 20.2449C6.56563 20.4853 6.46013 20.7839 6.45921 21.092C6.45829 21.4001 6.56201 21.6994 6.75337 21.9409C7.00213 22.027 7.26743 22.0544 7.52854 22.0211C7.78966 21.9877 8.03952 21.8944 8.25863 21.7485C8.14947 22.0069 8.1212 22.2922 8.17753 22.567C8.23387 22.8417 8.37217 23.093 8.57419 23.2875C8.85956 23.4143 9.17245 23.4666 9.48354 23.4394C9.79463 23.4123 10.0937 23.3066 10.3528 23.1322L11.2236 22.3442C12.0201 23.1373 13.1186 23.6284 14.3319 23.6284L14.4349 23.6267C14.8347 23.5926 15.2178 23.4503 15.543 23.2152C15.8682 22.98 16.1233 22.6609 16.281 22.2919C16.5274 22.3864 16.8075 22.4505 17.1045 22.4505C17.5028 22.4505 17.8723 22.3358 18.1845 22.1383C19.1717 21.4853 18.9354 20.979 18.9354 20.979C19.2865 21.1301 19.6764 21.1659 20.0491 21.0813C20.4218 20.9967 20.758 20.796 21.0094 20.5082C21.2706 20.241 21.4353 19.8943 21.4775 19.523C21.5197 19.1517 21.4369 18.7769 21.2423 18.4579C21.2529 18.4642 21.2653 18.4672 21.2777 18.4663C21.9881 18.4663 22.6057 18.0748 22.9281 17.4977C23.0867 17.0875 23.1403 16.6442 23.084 16.208C23.0277 15.7719 22.8633 15.3567 22.6057 15.0002L22.6108 15.0086C23.9946 14.7386 23.9439 14.0468 24.6189 13.0342C25.2581 12.208 26.0533 11.5154 26.9595 10.9957L21.9375 5.0625ZM21.8531 16.9763C21.1106 17.7188 20.5369 17.3981 19.2712 16.4362C18.0056 15.4744 15.4913 13.6688 15.4913 13.6688C15.5942 14.1834 15.8321 14.6306 16.1679 14.9867C16.7063 15.5925 18.3094 16.9762 19.0688 17.685C19.5413 18.1237 20.7563 19.0012 20.0475 19.6762C19.3388 20.3512 18.7819 19.6763 17.6175 18.7313C16.4531 17.7863 13.8544 15.4575 13.8544 15.4575C13.8401 15.6807 13.8733 15.9044 13.9518 16.1139C14.0303 16.3233 14.1524 16.5137 14.31 16.6725C14.5969 17.01 16.2 18.5625 16.875 19.2712C17.55 19.98 18.1406 20.4019 17.5669 20.9587C16.9931 21.5156 15.8287 20.6381 15.1875 19.98C14.1919 19.0181 12.2175 17.2294 12.2175 17.2294L12.2158 17.3188C12.2158 17.7981 12.3812 18.2368 12.6596 18.5844C13.1456 19.2223 14.0906 20.0492 14.6644 20.6904C15.2381 21.3317 15.5756 21.8717 14.6644 22.3779C13.7531 22.8842 12.4031 21.6354 11.8125 21.0279V21.0246C11.8126 20.8579 11.7527 20.6967 11.6438 20.5706C11.4419 20.3836 11.1928 20.2553 10.9234 20.1994C10.654 20.1435 10.3745 20.1621 10.1149 20.2534C10.2217 20.1578 10.3073 20.0408 10.3662 19.9102C10.4251 19.7795 10.4561 19.6379 10.457 19.4946C10.458 19.3512 10.4289 19.2092 10.3718 19.0778C10.3146 18.9463 10.2305 18.8283 10.125 18.7313C9.90349 18.5634 9.63312 18.4727 9.35522 18.473C9.07731 18.4733 8.80714 18.5646 8.586 18.7329C8.69782 18.6261 8.78414 18.4955 8.83855 18.3508C8.89295 18.206 8.91405 18.0509 8.90027 17.8968C8.88649 17.7428 8.83818 17.5939 8.75894 17.4611C8.67971 17.3283 8.57157 17.2151 8.44256 17.1298C8.14047 16.94 7.78599 16.8508 7.43004 16.8751C7.07409 16.8993 6.73499 17.0358 6.46144 17.2648C6.64426 17.0432 6.7344 16.7596 6.71302 16.4731C6.69163 16.1866 6.56038 15.9195 6.34669 15.7275C6.0811 15.4803 5.74265 15.3257 5.38191 15.2867C5.02118 15.2478 4.65753 15.3267 4.34531 15.5115L3.22312 13.6164C2.44687 12.3846 1.53563 11.1021 1.53563 11.1021L5.38313 6.42769C5.38313 6.42769 6.75 7.27144 7.88063 7.91269C8.4375 8.23331 9.39937 8.65519 10.125 8.99269C8.9775 9.85331 8.01562 10.6802 8.3025 11.2539C8.81373 11.6209 9.4247 11.8233 10.0539 11.8342C10.6831 11.8451 11.3007 11.6638 11.8243 11.3147C12.4957 10.8684 13.2845 10.6317 14.0906 10.6346C14.6762 10.6346 15.2331 10.7561 15.7376 10.9772C16.6725 11.6083 18.3937 13.1608 19.9631 14.1396C21.9375 15.5739 22.3256 16.5021 21.8531 16.9746V16.9763Z"
        fill="white" />
</svg>
