<svg fill="none" height="15" viewBox="0 0 15 15" width="15" xmlns="http://www.w3.org/2000/svg">
    <path
        d="M7.08333 0.416626C3.17333 0.416626 0 3.58996 0 7.49996C0 11.41 3.17333 14.5833 7.08333 14.5833C10.9933 14.5833 14.1667 11.41 14.1667 7.49996C14.1667 3.58996 10.9933 0.416626 7.08333 0.416626ZM7.79167 12.4583H6.375V11.0416H7.79167V12.4583ZM9.25792 6.96871L8.62042 7.62038C8.11042 8.13746 7.79167 8.56246 7.79167 9.62496H6.375V9.27079C6.375 8.49163 6.69375 7.78329 7.20375 7.26621L8.08208 6.37371C8.34417 6.11871 8.5 5.76454 8.5 5.37496C8.5 4.59579 7.8625 3.95829 7.08333 3.95829C6.30417 3.95829 5.66667 4.59579 5.66667 5.37496H4.25C4.25 3.80954 5.51792 2.54163 7.08333 2.54163C8.64875 2.54163 9.91667 3.80954 9.91667 5.37496C9.91667 5.99829 9.66167 6.56496 9.25792 6.96871Z"
        fill="#2D2F8D" fill-opacity="0.53" />
</svg>
